<?xml version="1.0" encoding="UTF-8" standalone="no"?>
<svg
   id="svg77"
   width="1024"
   height="1024"
   viewBox="0 0 1024 1024"
   version="1.1"
   sodipodi:docname="icon.svg"
   inkscape:export-filename="icon.png"
   inkscape:export-xdpi="96"
   inkscape:export-ydpi="96"
   xmlns:inkscape="http://www.inkscape.org/namespaces/inkscape"
   xmlns:sodipodi="http://sodipodi.sourceforge.net/DTD/sodipodi-0.dtd"
   xmlns:xlink="http://www.w3.org/1999/xlink"
   xmlns="http://www.w3.org/2000/svg"
   xmlns:svg="http://www.w3.org/2000/svg">
  <sodipodi:namedview
     id="namedview1"
     pagecolor="#ffffff"
     bordercolor="#000000"
     borderopacity="0.25"
     inkscape:showpageshadow="2"
     inkscape:pageopacity="0.0"
     inkscape:pagecheckerboard="0"
     inkscape:deskcolor="#d1d1d1">
    <inkscape:page
       x="0"
       y="0"
       width="1024"
       height="1024"
       id="page2"
       margin="0"
       bleed="0" />
  </sodipodi:namedview>
  <defs
     id="defs10">
    <linearGradient
       id="linearGradient23">
      <stop
         id="stop23"
         offset="0"
         style="stop-color:#f2c94c;stop-opacity:1" />
      <stop
         id="stop26"
         offset=".614"
         style="stop-color:#ccc7ae;stop-opacity:1" />
      <stop
         id="stop24"
         offset="1"
         style="stop-color:#fff4cc;stop-opacity:1" />
    </linearGradient>
    <linearGradient
       inkscape:collect="always"
       xlink:href="#linearGradient23"
       id="linearGradient1"
       gradientUnits="userSpaceOnUse"
       gradientTransform="matrix(2.6661,0,0,2.66943,-438.49202,-693.76)"
       x1="188.44501"
       y1="279.07101"
       x2="531.289"
       y2="627.66998" />
  </defs>
  <path
     id="rect21-1"
     d="M 2.34375e-5,3.2821045e-7 H 1024 V 1024 H 2.34375e-5 Z"
     style="fill:url(#linearGradient1);fill-opacity:1;stroke:none;stroke-width:10.9378;stroke-dasharray:none"
     inkscape:export-filename="icon512.svg"
     inkscape:export-xdpi="48"
     inkscape:export-ydpi="48" />
  <path
     id="Capa 1-5"
     d="m 298.64872,348.75023 v -43.95642 c 0,-14.26498 11.5398,-25.81931 25.787,-25.81931 h 131.085 c 14.2473,0 25.7871,11.55433 25.7871,25.81931 v 8.60671 h 223.489 c 14.2481,0 25.7879,11.55352 25.7879,25.8193 v 9.53041 h -442.7013 c -14.1835,0 -24.1564,13.47185 -22.3082,29.84539 l 32.3013,286.44335 c 1.3751,12.24267 12.2467,22.07453 24.2806,22.07453 h 385.0699 c 12.0556,0 22.9055,-9.83186 24.2806,-22.07453 l 31.9781,-286.44335 c 1.8264,-16.37354 -8.1457,-29.84539 -22.3284,-29.84539 h -10.5734"
     style="fill:none;stroke:#f4f4ee;stroke-width:16.1204;stroke-miterlimit:100;stroke-dasharray:none;stroke-opacity:1"
     inkscape:label="Capa 1" />
</svg>
