<?xml version="1.0" encoding="UTF-8" standalone="no"?>
<svg
   id="svg77"
   width="1024"
   height="1024"
   viewBox="0 0 1024 1024"
   version="1.1"
   sodipodi:docname="icon.svg"
   inkscape:export-filename="icon.png"
   inkscape:export-xdpi="96"
   inkscape:export-ydpi="96"
   inkscape:version="1.4.4 (dcaf3e7, 2026-05-05)"
   xmlns:inkscape="http://www.inkscape.org/namespaces/inkscape"
   xmlns:sodipodi="http://sodipodi.sourceforge.net/DTD/sodipodi-0.dtd"
   xmlns:xlink="http://www.w3.org/1999/xlink"
   xmlns="http://www.w3.org/2000/svg"
   xmlns:svg="http://www.w3.org/2000/svg">
  <sodipodi:namedview
     id="namedview1"
     pagecolor="#ffffff"
     bordercolor="#000000"
     borderopacity="0.25"
     inkscape:showpageshadow="2"
     inkscape:pageopacity="0.0"
     inkscape:pagecheckerboard="0"
     inkscape:deskcolor="#d1d1d1"
     inkscape:zoom="0.41552735"
     inkscape:cx="141.98825"
     inkscape:cy="867.57226"
     inkscape:window-width="1920"
     inkscape:window-height="1111"
     inkscape:window-x="-9"
     inkscape:window-y="-9"
     inkscape:window-maximized="1"
     inkscape:current-layer="svg77"
     showgrid="false" />
  <defs
     id="defs10">
    <linearGradient
       id="linearGradient3">
      <stop
         id="stop1"
         offset="0.44837758"
         style="stop-color:#f2c94c;stop-opacity:1" />
      <stop
         id="stop3"
         offset="1"
         style="stop-color:#fff4cc;stop-opacity:1" />
    </linearGradient>
    <linearGradient
       id="linearGradient23">
      <stop
         id="stop23"
         offset="0"
         style="stop-color:#f2c94c;stop-opacity:1" />
      <stop
         id="stop26"
         offset=".614"
         style="stop-color:#ccc7ae;stop-opacity:1" />
      <stop
         id="stop24"
         offset="1"
         style="stop-color:#fff4cc;stop-opacity:1" />
    </linearGradient>
    <linearGradient
       xlink:href="#linearGradient3"
       id="linearGradient24"
       x1="188.445"
       x2="531.289"
       y1="279.071"
       y2="627.67"
       gradientTransform="matrix(2.6614008,0,0,2.6647247,-437.56023,-692.37828)"
       gradientUnits="userSpaceOnUse" />
    <linearGradient
       inkscape:collect="always"
       xlink:href="#linearGradient23"
       id="linearGradient1"
       gradientUnits="userSpaceOnUse"
       gradientTransform="matrix(2.6661,0,0,2.66943,844.44646,-683.77453)"
       x1="188.445"
       y1="279.071"
       x2="531.289"
       y2="627.67" />
  </defs>
  <path
     id="rect21"
     d="M 0.15887989,0.15887989 H 1022.3539 V 1022.3539 H 0.15887989 Z"
     style="fill:url(#linearGradient24);fill-opacity:1;stroke:none;stroke-width:10.9184;stroke-dasharray:none"
     inkscape:export-filename="icon.png"
     inkscape:export-xdpi="96"
     inkscape:export-ydpi="96" />
  <path
     id="Capa 1"
     d="m 325.09678,428.36809 -1.6987,-72.22509 c -0.29188,-12.40995 10.04195,-22.46799 22.4399,-22.46799 h 72.20352 41.86672 c 12.39797,0 22.43991,10.05461 22.43991,22.46799 v 7.48956 h 194.48026 c 31.08445,0 24.1393,44.02805 24.1393,56.44217 v 8.29336 H 315.72886 c -12.34256,0 -21.02098,11.7232 -19.41268,25.97148 l 26.40995,215.28897 c 1.19658,10.65357 10.6571,19.20927 21.12901,19.20927 H 678.9431 c 10.49085,0 19.9324,-8.5557 21.12899,-19.20927 l 29.52608,-215.28897 c 1.5894,-14.24828 -7.08834,-25.97148 -19.43019,-25.97148"
     style="fill:none;stroke:#f4f4ee;stroke-width:45.2744;stroke-miterlimit:100;stroke-dasharray:none;stroke-opacity:1"
     inkscape:label="Capa 1"
     sodipodi:nodetypes="csscsscsscsccssccc" />
  <path
     id="rect21-1"
     d="m 1282.9385,9.9854711 h 1024 V 1033.9855 h -1024 z"
     style="fill:url(#linearGradient1);fill-opacity:1;stroke:none;stroke-width:10.9378;stroke-dasharray:none"
     inkscape:export-filename="icon512.png"
     inkscape:export-xdpi="48"
     inkscape:export-ydpi="48" />
  <path
     id="Capa 1-5"
     d="m 1581.5872,358.7357 v -43.95642 c 0,-14.26498 11.5398,-25.81931 25.787,-25.81931 h 131.085 c 14.2473,0 25.7871,11.55433 25.7871,25.81931 v 8.60671 h 223.489 c 14.2481,0 25.7879,11.55352 25.7879,25.8193 v 9.53041 h -442.7013 c -14.1835,0 -24.1564,13.47185 -22.3082,29.84539 l 32.3013,286.44335 c 1.3751,12.24267 12.2467,22.07453 24.2806,22.07453 h 385.0699 c 12.0556,0 22.9055,-9.83186 24.2806,-22.07453 l 31.9781,-286.44335 c 1.8264,-16.37354 -8.1457,-29.84539 -22.3284,-29.84539 h -10.5734"
     style="fill:none;stroke:#f4f4ee;stroke-width:16.1204;stroke-miterlimit:100;stroke-dasharray:none;stroke-opacity:1"
     inkscape:label="Capa 1" />
  <g
     id="Group-3"
     transform="matrix(2.6523726,0,0,2.6523726,-432.33541,-685.54842)" />
  <g
     id="&lt;Group&gt;"
     style="display:none"
     transform="matrix(1.3261855,0,0,1.3261863,39.088701,-87.517809)"
     sodipodi:insensitive="true">
    <g
       id="Rectangle-5">
      <path
         id="path16"
         class="s4"
         d="M 164,259 H 548 V 643 H 164 Z"
         style="opacity:0.1;fill:#66ddb7" />
      <path
         id="path17"
         class="s5"
         d="M 164,259 H 548 V 643 H 164 Z"
         style="fill:none;stroke:#65dcb7;stroke-width:0.5" />
    </g>
    <path
       id="Rectangle-6"
       class="s5"
       d="m 183,323 h 346 c 1.66,0 3,1.34 3,3 v 250 c 0,1.66 -1.34,3 -3,3 H 183 c -1.66,0 -3,-1.34 -3,-3 V 326 c 0,-1.66 1.34,-3 3,-3 z"
       style="fill:none;stroke:#65dcb7;stroke-width:0.5" />
    <path
       id="Rectangle-6 1 "
       class="s5"
       d="m 231,275 h 250 c 1.66,0 3,1.34 3,3 v 346 c 0,1.66 -1.34,3 -3,3 H 231 c -1.66,0 -3,-1.34 -3,-3 V 278 c 0,-1.66 1.34,-3 3,-3 z"
       style="fill:none;stroke:#65dcb7;stroke-width:0.5" />
    <path
       id="Rectangle-6 2 "
       class="s5"
       d="m 207,299 h 298 c 1.66,0 3,1.34 3,3 v 298 c 0,1.66 -1.34,3 -3,3 H 207 c -1.66,0 -3,-1.34 -3,-3 V 302 c 0,-1.66 1.34,-3 3,-3 z"
       style="fill:none;stroke:#65dcb7;stroke-width:0.5" />
    <path
       id="Oval-3"
       class="s5"
       d="m 356,275 c 97.2,0 176,78.8 176,176 0,97.2 -78.8,176 -176,176 -97.2,0 -176,-78.8 -176,-176 0,-97.2 78.8,-176 176,-176 z"
       style="fill:none;stroke:#65dcb7;stroke-width:0.5" />
    <path
       id="Oval-3 1 "
       class="s5"
       d="m 356,371 c 44.18,0 80,35.82 80,80 0,44.18 -35.82,80 -80,80 -44.18,0 -80,-35.82 -80,-80 0,-44.18 35.82,-80 80,-80 z"
       style="fill:none;stroke:#65dcb7;stroke-width:0.5" />
    <path
       id="Line-2"
       class="s6"
       d="M 164.42,642.69 547.65,259.39"
       style="opacity:0.3;fill:none;stroke:#65dcb7;stroke-width:0.5;stroke-linecap:square" />
    <path
       id="Line-2 1 "
       class="s6"
       d="M 547.48,642.47 164.37,259.42"
       style="opacity:0.3;fill:none;stroke:#65dcb7;stroke-width:0.5;stroke-linecap:square" />
    <path
       id="Line-3"
       class="s6"
       d="M 300,259 V 643"
       style="opacity:0.3;fill:none;stroke:#65dcb7;stroke-width:0.5;stroke-linecap:square" />
    <path
       id="Line-3 1 "
       class="s6"
       d="M 356,259 V 643"
       style="opacity:0.3;fill:none;stroke:#65dcb7;stroke-width:0.5;stroke-linecap:square" />
    <path
       id="Line-3 2 "
       class="s6"
       d="M 412.08,259 V 643"
       style="opacity:0.3;fill:none;stroke:#65dcb7;stroke-width:0.5;stroke-linecap:square" />
    <path
       id="Line-3 3 "
       class="s7"
       d="M 547.73,395 H 164"
       style="opacity:0.3;fill:none;stroke:#65dcb7;stroke-width:0.4;stroke-linecap:square" />
    <path
       id="Line-3 4 "
       class="s7"
       d="M 547.73,451 H 164"
       style="opacity:0.3;fill:none;stroke:#65dcb7;stroke-width:0.4;stroke-linecap:square" />
    <path
       id="Line-3 5 "
       class="s6"
       d="M 547.73,507 H 164"
       style="opacity:0.3;fill:none;stroke:#65dcb7;stroke-width:0.5;stroke-linecap:square" />
  </g>
</svg>
