<?xml version="1.0" encoding="UTF-8" standalone="no"?>
<svg
   id="svg77"
   width="512"
   height="512"
   viewBox="0 0 512 512"
   version="1.1"
   sodipodi:docname="icon.svg"
   inkscape:export-filename="icon.png"
   inkscape:export-xdpi="96"
   inkscape:export-ydpi="96"
   inkscape:version="1.4.4 (dcaf3e7, 2026-05-05)"
   xmlns:inkscape="http://www.inkscape.org/namespaces/inkscape"
   xmlns:sodipodi="http://sodipodi.sourceforge.net/DTD/sodipodi-0.dtd"
   xmlns:xlink="http://www.w3.org/1999/xlink"
   xmlns="http://www.w3.org/2000/svg"
   xmlns:svg="http://www.w3.org/2000/svg">
  <sodipodi:namedview
     id="namedview1"
     pagecolor="#ffffff"
     bordercolor="#000000"
     borderopacity="0.25"
     inkscape:showpageshadow="2"
     inkscape:pageopacity="0.0"
     inkscape:pagecheckerboard="0"
     inkscape:deskcolor="#d1d1d1"
     inkscape:zoom="1.1752888"
     inkscape:cx="572.19978"
     inkscape:cy="570.49807"
     inkscape:window-width="1920"
     inkscape:window-height="1111"
     inkscape:window-x="-9"
     inkscape:window-y="-9"
     inkscape:window-maximized="1"
     inkscape:current-layer="svg77">
    <inkscape:page
       x="0"
       y="0"
       width="512"
       height="512"
       id="page2"
       margin="0"
       bleed="0" />
  </sodipodi:namedview>
  <defs
     id="defs10">
    <linearGradient
       id="linearGradient3">
      <stop
         id="stop1"
         offset="0.44837758"
         style="stop-color:#f2c94c;stop-opacity:1" />
      <stop
         id="stop3"
         offset="1"
         style="stop-color:#fff4cc;stop-opacity:1" />
    </linearGradient>
    <linearGradient
       xlink:href="#linearGradient3"
       id="linearGradient24"
       x1="188.44501"
       x2="531.289"
       y1="279.07101"
       y2="627.66998"
       gradientTransform="matrix(1.3330501,0,0,1.334715,-219.246,-346.88)"
       gradientUnits="userSpaceOnUse" />
  </defs>
  <path
     id="rect21"
     d="M 1.3085937e-6,1.3085937e-6 H 512 V 512 H 1.3085937e-6 Z"
     style="fill:url(#linearGradient24);fill-opacity:1;stroke:none;stroke-width:5.46886;stroke-dasharray:none"
     inkscape:export-filename="icon512.png"
     inkscape:export-xdpi="96"
     inkscape:export-ydpi="96" />
  <path
     id="Capa 1"
     d="m 138.58047,165.95244 v -24.16738 c 0,-7.84293 6.34462,-14.19555 14.1778,-14.19555 h 72.07096 c 7.83318,0 14.17781,6.35262 14.17781,14.19555 v 4.73199 h 122.87498 c 7.83362,0 14.17825,6.35216 14.17825,14.19554 v 5.23985 H 132.6617 c -7.79818,0 -13.28131,7.40686 -12.26516,16.40909 l 17.75938,157.48749 c 0.75602,6.73106 6.73328,12.13665 13.34956,12.13665 h 211.71264 c 6.62825,0 12.59354,-5.40559 13.34956,-12.13665 l 17.58168,-157.48749 c 1.00419,-9.00223 -4.47851,-16.40909 -12.27624,-16.40909 h -5.81329"
     style="fill:none;stroke:#f4f4ee;stroke-width:13.7451;stroke-miterlimit:100;stroke-dasharray:none;stroke-opacity:1"
     inkscape:label="Capa 1" />
</svg>
