<?xml version="1.0" encoding="UTF-8" standalone="no"?>
<svg
   id="svg77"
   width="1024"
   height="1024"
   viewBox="0 0 1024 1024"
   version="1.1"
   sodipodi:docname="icon.svg"
   inkscape:export-filename="icon.png"
   inkscape:export-xdpi="96"
   inkscape:export-ydpi="96"
   inkscape:version="1.4.4 (dcaf3e7, 2026-05-05)"
   xmlns:inkscape="http://www.inkscape.org/namespaces/inkscape"
   xmlns:sodipodi="http://sodipodi.sourceforge.net/DTD/sodipodi-0.dtd"
   xmlns:xlink="http://www.w3.org/1999/xlink"
   xmlns="http://www.w3.org/2000/svg"
   xmlns:svg="http://www.w3.org/2000/svg">
  <sodipodi:namedview
     id="namedview1"
     pagecolor="#ffffff"
     bordercolor="#000000"
     borderopacity="0.25"
     inkscape:showpageshadow="2"
     inkscape:pageopacity="0.0"
     inkscape:pagecheckerboard="0"
     inkscape:deskcolor="#d1d1d1"
     inkscape:zoom="0.58764441"
     inkscape:cx="764.91837"
     inkscape:cy="569.22179"
     inkscape:window-width="1920"
     inkscape:window-height="1111"
     inkscape:window-x="-9"
     inkscape:window-y="-9"
     inkscape:window-maximized="1"
     inkscape:current-layer="svg77" />
  <defs
     id="defs10">
    <linearGradient
       id="linearGradient23">
      <stop
         id="stop23"
         offset="0"
         style="stop-color:#f2c94c;stop-opacity:1" />
      <stop
         id="stop26"
         offset=".614"
         style="stop-color:#ccc7ae;stop-opacity:1" />
      <stop
         id="stop24"
         offset="1"
         style="stop-color:#fff4cc;stop-opacity:1" />
    </linearGradient>
    <linearGradient
       xlink:href="#linearGradient23"
       id="linearGradient24"
       x1="188.445"
       x2="531.289"
       y1="279.071"
       y2="627.67"
       gradientTransform="matrix(2.6661 0 0 2.66943 -438.492 -693.76)"
       gradientUnits="userSpaceOnUse" />
    <linearGradient
       inkscape:collect="always"
       xlink:href="#linearGradient23"
       id="linearGradient1"
       gradientUnits="userSpaceOnUse"
       gradientTransform="matrix(2.6661,0,0,2.66943,844.44646,-683.77453)"
       x1="188.445"
       y1="279.071"
       x2="531.289"
       y2="627.67" />
  </defs>
  <path
     id="rect21"
     d="M0 0h1024v1024H0z"
     style="fill:url(#linearGradient24);fill-opacity:1;stroke:none;stroke-width:10.9378;stroke-dasharray:none" />
  <path
     id="Capa 1"
     d="m 298.64868,348.75023 v -43.95642 c 0,-14.26498 11.53981,-25.81931 25.78706,-25.81931 h 131.085 c 14.24725,0 25.78707,11.55433 25.78707,25.81931 v 8.60671 h 223.48898 c 14.24806,0 25.78788,11.55352 25.78788,25.8193 v 9.53041 H 287.88344 c -14.18357,0 -24.15648,13.47185 -22.30827,29.84539 l 32.30134,286.44335 c 1.37507,12.24267 12.2467,22.07453 24.28061,22.07453 h 385.06983 c 12.05567,0 22.90554,-9.83186 24.28061,-22.07453 l 31.97813,-286.44335 c 1.82644,-16.37354 -8.14566,-29.84539 -22.32843,-29.84539 h -10.5734"
     style="fill:none;stroke:#f4f4ee;stroke-width:16.1204;stroke-miterlimit:100;stroke-dasharray:none;stroke-opacity:1"
     inkscape:label="Capa 1" />
  <path
     id="rect21-1"
     d="m 1282.9385,9.9854711 h 1024 V 1033.9855 h -1024 z"
     style="fill:url(#linearGradient1);fill-opacity:1;stroke:none;stroke-width:10.9378;stroke-dasharray:none"
     inkscape:export-filename="icon512.png"
     inkscape:export-xdpi="48"
     inkscape:export-ydpi="48" />
  <path
     id="Capa 1-5"
     d="m 1581.5872,358.7357 v -43.95642 c 0,-14.26498 11.5398,-25.81931 25.787,-25.81931 h 131.085 c 14.2473,0 25.7871,11.55433 25.7871,25.81931 v 8.60671 h 223.489 c 14.2481,0 25.7879,11.55352 25.7879,25.8193 v 9.53041 h -442.7013 c -14.1835,0 -24.1564,13.47185 -22.3082,29.84539 l 32.3013,286.44335 c 1.3751,12.24267 12.2467,22.07453 24.2806,22.07453 h 385.0699 c 12.0556,0 22.9055,-9.83186 24.2806,-22.07453 l 31.9781,-286.44335 c 1.8264,-16.37354 -8.1457,-29.84539 -22.3284,-29.84539 h -10.5734"
     style="fill:none;stroke:#f4f4ee;stroke-width:16.1204;stroke-miterlimit:100;stroke-dasharray:none;stroke-opacity:1"
     inkscape:label="Capa 1" />
</svg>
