<svg xmlns="http://www.w3.org/2000/svg" xmlns:xlink="http://www.w3.org/1999/xlink" id="svg77" width="1024" height="1024" viewBox="0 0 1024 1024"><defs id="defs10"><linearGradient id="linearGradient23"><stop id="stop23" offset="0" style="stop-color:#f2c94c;stop-opacity:1"/><stop id="stop26" offset=".614" style="stop-color:#ccc7ae;stop-opacity:1"/><stop id="stop24" offset="1" style="stop-color:#fff4cc;stop-opacity:1"/></linearGradient><linearGradient xlink:href="#linearGradient23" id="linearGradient24" x1="188.445" x2="531.289" y1="279.071" y2="627.67" gradientTransform="matrix(2.6661 0 0 2.66943 -438.492 -693.76)" gradientUnits="userSpaceOnUse"/></defs><path id="rect21" d="M0 0h1024v1024H0z" style="fill:url(#linearGradient24);fill-opacity:1;stroke:none;stroke-width:10.9378;stroke-dasharray:none"/><path id="Capa 1" d="M246.695 316.431v-54.535c0-17.698 14.317-32.033 31.993-32.033H441.32c17.676 0 31.993 14.335 31.993 32.033v10.678h277.274c17.677 0 31.994 14.334 31.994 32.033v11.824H233.339c-17.597 0-29.97 16.714-27.677 37.028l40.075 355.379c1.706 15.189 15.194 27.387 30.124 27.387h477.741c14.957 0 28.418-12.198 30.124-27.387L823.4 353.459c2.266-20.314-10.106-37.028-27.702-37.028H782.58" style="fill:none;stroke-miterlimit:100;stroke:#f4f4ee;stroke-width:10.9378;stroke-dasharray:none;stroke-opacity:1"/></svg>