<svg xmlns="http://www.w3.org/2000/svg" xmlns:xlink="http://www.w3.org/1999/xlink" id="svg77" width="236.004" height="193.789" viewBox="0 0 236.004 193.789"><defs id="defs10"><linearGradient id="linearGradient12"><stop id="stop12" offset="0" style="stop-color:#f2c94c;stop-opacity:1"/><stop id="stop14" offset=".483" style="stop-color:#e2e3da;stop-opacity:1"/><stop id="stop20" offset=".608" style="stop-color:#6fcf97;stop-opacity:1"/><stop id="stop21" offset=".769" style="stop-color:#fff4cc;stop-opacity:1"/><stop id="stop13" offset=".974" style="stop-color:#6b6b63;stop-opacity:1"/></linearGradient><linearGradient xlink:href="#linearGradient12" id="linearGradient13" x1="287.975" x2="452.372" y1="370.32" y2="533.408" gradientTransform="translate(-239.457 -343.95)" gradientUnits="userSpaceOnUse"/></defs><path id="Capa 1" d="M17.543 34.48V14.05c0-6.63 5.37-12 12-12h61c6.63 0 12 5.37 12 12v4h104c6.63 0 12 5.37 12 12v4.43H12.533c-6.6 0-11.24 6.26-10.38 13.87l15.031 133.13c.64 5.69 5.699 10.26 11.299 10.26h179.191c5.61 0 10.66-4.57 11.3-10.26l14.88-133.13c.85-7.61-3.79-13.87-10.39-13.87h-4.92" style="fill:none;stroke-miterlimit:100;stroke:url(#linearGradient13);stroke-width:4.1;stroke-dasharray:none"/></svg>